<svg width="48" height="48" xmlns="http://www.w3.org/2000/svg">

 <g>
  <title>background</title>
  <rect fill="none" id="canvas_background" height="604" width="1278" y="-1" x="-1"/>
 </g>
 <g>
  <title>Layer 1</title>
  <path id="svg_1" fill="#9e9e9e" d="m23.712433,15.889382c2.21,0 4,-1.79 4,-4s-1.79,-4 -4,-4s-4,1.79 -4,4s1.79,4 4,4zm0,4c-2.21,0 -4,1.79 -4,4s1.79,4 4,4s4,-1.79 4,-4s-1.79,-4 -4,-4zm0,12c-2.21,0 -4,1.79 -4,4s1.79,4 4,4s4,-1.79 4,-4s-1.79,-4 -4,-4z"/>
  <path id="svg_2" fill="#9e9e9e" d="m24,16c2.21,0 4,-1.79 4,-4s-1.79,-4 -4,-4s-4,1.79 -4,4s1.79,4 4,4zm0,4c-2.21,0 -4,1.79 -4,4s1.79,4 4,4s4,-1.79 4,-4s-1.79,-4 -4,-4zm0,12c-2.21,0 -4,1.79 -4,4s1.79,4 4,4s4,-1.79 4,-4s-1.79,-4 -4,-4z"/>
  <path id="svg_3" fill="#9e9e9e" d="m11.234524,16c2.21,0 4,-1.79 4,-4s-1.79,-4 -4,-4s-4,1.79 -4,4s1.79,4 4,4zm0,4c-2.21,0 -4,1.79 -4,4s1.79,4 4,4s4,-1.79 4,-4s-1.79,-4 -4,-4zm0,12c-2.21,0 -4,1.79 -4,4s1.79,4 4,4s4,-1.79 4,-4s-1.79,-4 -4,-4z"/>
  <path id="svg_4" fill="#9e9e9e" d="m36.323972,16c2.21,0 4,-1.79 4,-4s-1.79,-4 -4,-4s-4,1.79 -4,4s1.79,4 4,4zm0,4c-2.21,0 -4,1.79 -4,4s1.79,4 4,4s4,-1.79 4,-4s-1.79,-4 -4,-4zm0,12c-2.21,0 -4,1.79 -4,4s1.79,4 4,4s4,-1.79 4,-4s-1.79,-4 -4,-4z"/>
 </g>
</svg>